# xmcd CD database file
#
# Track frame offsets:
#	150
#	23622
#	49217
#	72987
#	98030
#	134070
#	159605
#
# Disc length: 2587 seconds
#
# Revision: 1
# Processed by: cddbd v1.5.2PL0 Copyright (c) Steve Scherf et al.
# Submitted via: CDex 1.51
#
DISCID=5d0a1907
DTITLE=Zoot Sims - I Wish I Where Twins
DYEAR=1981
DGENRE=Jazz
TTITLE0=I Wish I Where Twins
TTITLE1=Georgia On My Mind
TTITLE2=Changes
TTITLE3=The Touch Of Your Lips
TTITLE4=The Fish Horn
TTITLE5=Come Closer To Me
TTITLE6=You Go Your Way
EXTD=YEAR: 1981
EXTT0=
EXTT1=
EXTT2=
EXTT3=
EXTT4=
EXTT5=
EXTT6=
PLAYORDER=
